<svg xmlns="http://www.w3.org/2000/svg" width="600" height="530" viewBox="0 0 600 530">
  <rect width="600" height="530" class="svg-bg" fill="#ffffff" rx="10"/>
  <text x="300" y="32" text-anchor="middle" font-size="12.6" font-weight="800" fill="#0d1f35" font-family="Plus Jakarta Sans,DM Sans,sans-serif">IaCM Maturity Assessment — 63/100 (WALK → RUN)</text>
  <polygon points="300.0,246.3 327.4,257.6 338.8,285.0 327.4,312.4 300.0,323.8 272.6,312.4 261.3,285.0 272.6,257.6" fill="none" stroke="#e2e8f0" stroke-width="0.8"/><polygon points="300.0,207.5 354.8,230.2 377.5,285.0 354.8,339.8 300.0,362.5 245.2,339.8 222.5,285.0 245.2,230.2" fill="none" stroke="#e2e8f0" stroke-width="0.8"/><polygon points="300.0,168.8 382.2,202.8 416.3,285.0 382.2,367.2 300.0,401.3 217.8,367.2 183.8,285.0 217.8,202.8" fill="none" stroke="#e2e8f0" stroke-width="0.8"/><polygon points="300.0,130.0 409.6,175.4 455.0,285.0 409.6,394.6 300.0,440.0 190.4,394.6 145.0,285.0 190.4,175.4" fill="none" stroke="#e2e8f0" stroke-width="1.5"/><text x="305" y="218.5" font-size="8" fill="#64748b" font-family="Plus Jakarta Sans,DM Sans,sans-serif">50%</text><text x="305" y="141" font-size="8" fill="#64748b" font-family="Plus Jakarta Sans,DM Sans,sans-serif">100%</text><line x1="300" y1="285" x2="300.0" y2="130.0" stroke="#e2e8f0" stroke-width="0.8"/><line x1="300" y1="285" x2="409.6" y2="175.4" stroke="#e2e8f0" stroke-width="0.8"/><line x1="300" y1="285" x2="455.0" y2="285.0" stroke="#e2e8f0" stroke-width="0.8"/><line x1="300" y1="285" x2="409.6" y2="394.6" stroke="#e2e8f0" stroke-width="0.8"/><line x1="300" y1="285" x2="300.0" y2="440.0" stroke="#e2e8f0" stroke-width="0.8"/><line x1="300" y1="285" x2="190.4" y2="394.6" stroke="#e2e8f0" stroke-width="0.8"/><line x1="300" y1="285" x2="145.0" y2="285.0" stroke="#e2e8f0" stroke-width="0.8"/><line x1="300" y1="285" x2="190.4" y2="175.4" stroke="#e2e8f0" stroke-width="0.8"/>
  <polygon points="300.0,130.0 409.6,175.4 424.0,285.0 358.5,343.5 300.0,295.3 300.0,285.0 300.0,285.0 223.3,208.3" fill="#0278D5" fill-opacity="0.12" stroke="#0278D5" stroke-width="2.5" stroke-linejoin="round"/>
  <circle cx="424" cy="285" r="5" fill="#0278D5" stroke="#ffffff" stroke-width="2"/><circle cx="358.4541605780879" cy="343.4541605780879" r="5" fill="#0278D5" stroke="#ffffff" stroke-width="2"/><circle cx="300" cy="295.3333333333333" r="5" fill="#0278D5" stroke="#ffffff" stroke-width="2"/><circle cx="223.27891424125957" cy="208.2789142412596" r="5" fill="#0278D5" stroke="#ffffff" stroke-width="2"/><text y="81.5" text-anchor="middle" font-size="10.5" font-weight="700" fill="#1e293b" font-family="Plus Jakarta Sans,DM Sans,sans-serif"><tspan x="300.0" dy="0">Workspace</tspan><tspan x="300.0" dy="13">Scale</tspan></text><text y="140.4" text-anchor="start" font-size="10.5" font-weight="700" fill="#1e293b" font-family="Plus Jakarta Sans,DM Sans,sans-serif"><tspan x="442.1" dy="0">Pipeline</tspan><tspan x="442.1" dy="13">Automation</tspan></text><text y="282.5" text-anchor="start" font-size="10.5" font-weight="700" fill="#1e293b" font-family="Plus Jakarta Sans,DM Sans,sans-serif"><tspan x="501.0" dy="0">Policy</tspan><tspan x="501.0" dy="13">Governance</tspan></text><text y="424.6" text-anchor="start" font-size="10.5" font-weight="700" fill="#1e293b" font-family="Plus Jakarta Sans,DM Sans,sans-serif"><tspan x="442.1" dy="0">Security &</tspan><tspan x="442.1" dy="13">Compliance</tspan></text><text y="483.5" text-anchor="middle" font-size="10.5" font-weight="700" fill="#1e293b" font-family="Plus Jakarta Sans,DM Sans,sans-serif"><tspan x="300.0" dy="0">Cost</tspan><tspan x="300.0" dy="13">Estimation</tspan></text><text y="424.6" text-anchor="end" font-size="10.5" font-weight="700" fill="#1e293b" font-family="Plus Jakarta Sans,DM Sans,sans-serif"><tspan x="157.9" dy="0">IaCM</tspan><tspan x="157.9" dy="13">Templates</tspan></text><text y="282.5" text-anchor="end" font-size="10.5" font-weight="700" fill="#1e293b" font-family="Plus Jakarta Sans,DM Sans,sans-serif"><tspan x="99.0" dy="0">Private</tspan><tspan x="99.0" dy="13">Registry</tspan></text><text y="140.4" text-anchor="end" font-size="10.5" font-weight="700" fill="#1e293b" font-family="Plus Jakarta Sans,DM Sans,sans-serif"><tspan x="157.9" dy="0">Provisioner</tspan><tspan x="157.9" dy="13">Strategy</tspan></text>
  <circle cx="300" cy="285" r="54" fill="#0d1f35"/>
  <text x="300" y="275" text-anchor="middle" font-size="26.9" font-weight="900" fill="#ffffff" font-family="Plus Jakarta Sans,DM Sans,sans-serif">63</text>
  <text x="300" y="295" text-anchor="middle" font-size="8.8" fill="rgba(255,255,255,0.5)" font-family="Plus Jakarta Sans,DM Sans,sans-serif">out of 100</text>
  <text x="300" y="312" text-anchor="middle" font-size="9.5" font-weight="800" fill="#d97706" font-family="Plus Jakarta Sans,DM Sans,sans-serif">WALK → RUN</text>
</svg>