<svg xmlns="http://www.w3.org/2000/svg" width="680" height="636" viewBox="0 0 680 636">
  <rect width="680" height="636" class="svg-bg" fill="#ffffff" rx="10"/>
  <text x="340" y="32" text-anchor="middle" font-size="12.6" font-weight="800" fill="#0d1f35" font-family="Plus Jakarta Sans,DM Sans,sans-serif">Top 10 Organisations — IaCM Footprint</text>
  
      <text x="206" y="65" text-anchor="end" font-size="10.5" fill="#1e293b" font-family="Plus Jakarta Sans,DM Sans,sans-serif" font-weight="500">TruVision Risk Mgmt</text>
      <rect x="218" y="52" width="322" height="14" rx="3" fill="#e2e8f0"/>
      <rect x="218" y="52" width="130.33333333333334" height="14" rx="3" fill="#0278D5"/>
      <text x="354.33333333333337" y="65" font-size="9.2" font-weight="700" fill="#0278D5" font-family="Plus Jakarta Sans,DM Sans,sans-serif">425</text>
      <rect x="218" y="70" width="322" height="14" rx="3" fill="#e2e8f0"/>
      <rect x="218" y="70" width="132.17333333333335" height="14" rx="3" fill="#0891b2" opacity="0.85"/>
      <text x="356.17333333333335" y="83" font-size="9.2" font-weight="700" fill="#0891b2" font-family="Plus Jakarta Sans,DM Sans,sans-serif">431</text>
    
      <text x="206" y="119" text-anchor="end" font-size="10.5" fill="#1e293b" font-family="Plus Jakarta Sans,DM Sans,sans-serif" font-weight="500">OneDev</text>
      <rect x="218" y="106" width="322" height="14" rx="3" fill="#e2e8f0"/>
      <rect x="218" y="106" width="116.53333333333333" height="14" rx="3" fill="#0278D5"/>
      <text x="340.5333333333333" y="119" font-size="9.2" font-weight="700" fill="#0278D5" font-family="Plus Jakarta Sans,DM Sans,sans-serif">380</text>
      <rect x="218" y="124" width="322" height="14" rx="3" fill="#e2e8f0"/>
      <rect x="218" y="124" width="176.94666666666666" height="14" rx="3" fill="#0891b2" opacity="0.85"/>
      <text x="400.94666666666666" y="137" font-size="9.2" font-weight="700" fill="#0891b2" font-family="Plus Jakarta Sans,DM Sans,sans-serif">577</text>
    
      <text x="206" y="173" text-anchor="end" font-size="10.5" fill="#1e293b" font-family="Plus Jakarta Sans,DM Sans,sans-serif" font-weight="500">Information Security</text>
      <rect x="218" y="160" width="322" height="14" rx="3" fill="#e2e8f0"/>
      <rect x="218" y="160" width="91.69333333333334" height="14" rx="3" fill="#0278D5"/>
      <text x="315.6933333333333" y="173" font-size="9.2" font-weight="700" fill="#0278D5" font-family="Plus Jakarta Sans,DM Sans,sans-serif">299</text>
      <rect x="218" y="178" width="322" height="14" rx="3" fill="#e2e8f0"/>
      <rect x="218" y="178" width="122.66666666666666" height="14" rx="3" fill="#0891b2" opacity="0.85"/>
      <text x="346.66666666666663" y="191" font-size="9.2" font-weight="700" fill="#0891b2" font-family="Plus Jakarta Sans,DM Sans,sans-serif">400</text>
    
      <text x="206" y="227" text-anchor="end" font-size="10.5" fill="#1e293b" font-family="Plus Jakarta Sans,DM Sans,sans-serif" font-weight="500">OneTru</text>
      <rect x="218" y="214" width="322" height="14" rx="3" fill="#e2e8f0"/>
      <rect x="218" y="214" width="80.96000000000001" height="14" rx="3" fill="#0278D5"/>
      <text x="304.96000000000004" y="227" font-size="9.2" font-weight="700" fill="#0278D5" font-family="Plus Jakarta Sans,DM Sans,sans-serif">264</text>
      <rect x="218" y="232" width="322" height="14" rx="3" fill="#e2e8f0"/>
      <rect x="218" y="232" width="260.05333333333334" height="14" rx="3" fill="#0891b2" opacity="0.85"/>
      <text x="484.05333333333334" y="245" font-size="9.2" font-weight="700" fill="#0891b2" font-family="Plus Jakarta Sans,DM Sans,sans-serif">848</text>
    
      <text x="206" y="281" text-anchor="end" font-size="10.5" fill="#1e293b" font-family="Plus Jakarta Sans,DM Sans,sans-serif" font-weight="500">Global Assoc. Tech.</text>
      <rect x="218" y="268" width="322" height="14" rx="3" fill="#e2e8f0"/>
      <rect x="218" y="268" width="53.05333333333333" height="14" rx="3" fill="#0278D5"/>
      <text x="277.05333333333334" y="281" font-size="9.2" font-weight="700" fill="#0278D5" font-family="Plus Jakarta Sans,DM Sans,sans-serif">173</text>
      <rect x="218" y="286" width="322" height="14" rx="3" fill="#e2e8f0"/>
      <rect x="218" y="286" width="301.76" height="14" rx="3" fill="#0891b2" opacity="0.85"/>
      <text x="525.76" y="299" font-size="9.2" font-weight="700" fill="#0891b2" font-family="Plus Jakarta Sans,DM Sans,sans-serif">984</text>
    
      <text x="206" y="335" text-anchor="end" font-size="10.5" fill="#1e293b" font-family="Plus Jakarta Sans,DM Sans,sans-serif" font-weight="500">TruAudiance & Mktg</text>
      <rect x="218" y="322" width="322" height="14" rx="3" fill="#e2e8f0"/>
      <rect x="218" y="322" width="41.09333333333334" height="14" rx="3" fill="#0278D5"/>
      <text x="265.09333333333336" y="335" font-size="9.2" font-weight="700" fill="#0278D5" font-family="Plus Jakarta Sans,DM Sans,sans-serif">134</text>
      <rect x="218" y="340" width="322" height="14" rx="3" fill="#e2e8f0"/>
      <rect x="218" y="340" width="33.42666666666667" height="14" rx="3" fill="#0891b2" opacity="0.85"/>
      <text x="257.4266666666667" y="353" font-size="9.2" font-weight="700" fill="#0891b2" font-family="Plus Jakarta Sans,DM Sans,sans-serif">109</text>
    
      <text x="206" y="389" text-anchor="end" font-size="10.5" fill="#1e293b" font-family="Plus Jakarta Sans,DM Sans,sans-serif" font-weight="500">TruValidate Fraud</text>
      <rect x="218" y="376" width="322" height="14" rx="3" fill="#e2e8f0"/>
      <rect x="218" y="376" width="38.946666666666665" height="14" rx="3" fill="#0278D5"/>
      <text x="262.94666666666666" y="389" font-size="9.2" font-weight="700" fill="#0278D5" font-family="Plus Jakarta Sans,DM Sans,sans-serif">127</text>
      <rect x="218" y="394" width="322" height="14" rx="3" fill="#e2e8f0"/>
      <rect x="218" y="394" width="146.58666666666667" height="14" rx="3" fill="#0891b2" opacity="0.85"/>
      <text x="370.5866666666667" y="407" font-size="9.2" font-weight="700" fill="#0891b2" font-family="Plus Jakarta Sans,DM Sans,sans-serif">478</text>
    
      <text x="206" y="443" text-anchor="end" font-size="10.5" fill="#1e293b" font-family="Plus Jakarta Sans,DM Sans,sans-serif" font-weight="500">TU CIBIL</text>
      <rect x="218" y="430" width="322" height="14" rx="3" fill="#e2e8f0"/>
      <rect x="218" y="430" width="36.18666666666667" height="14" rx="3" fill="#0278D5"/>
      <text x="260.18666666666667" y="443" font-size="9.2" font-weight="700" fill="#0278D5" font-family="Plus Jakarta Sans,DM Sans,sans-serif">118</text>
      <rect x="218" y="448" width="322" height="14" rx="3" fill="#e2e8f0"/>
      <rect x="218" y="448" width="24.84" height="14" rx="3" fill="#0891b2" opacity="0.85"/>
      <text x="248.84" y="461" font-size="9.2" font-weight="700" fill="#0891b2" font-family="Plus Jakarta Sans,DM Sans,sans-serif">81</text>
    
      <text x="206" y="497" text-anchor="end" font-size="10.5" fill="#1e293b" font-family="Plus Jakarta Sans,DM Sans,sans-serif" font-weight="500">TruContact Comms</text>
      <rect x="218" y="484" width="322" height="14" rx="3" fill="#e2e8f0"/>
      <rect x="218" y="484" width="32.81333333333333" height="14" rx="3" fill="#0278D5"/>
      <text x="256.81333333333333" y="497" font-size="9.2" font-weight="700" fill="#0278D5" font-family="Plus Jakarta Sans,DM Sans,sans-serif">107</text>
      <rect x="218" y="502" width="322" height="14" rx="3" fill="#e2e8f0"/>
      <rect x="218" y="502" width="23" height="14" rx="3" fill="#0891b2" opacity="0.85"/>
      <text x="247" y="515" font-size="9.2" font-weight="700" fill="#0891b2" font-family="Plus Jakarta Sans,DM Sans,sans-serif">75</text>
    
      <text x="206" y="551" text-anchor="end" font-size="10.5" fill="#1e293b" font-family="Plus Jakarta Sans,DM Sans,sans-serif" font-weight="500">TruIQ Analytics</text>
      <rect x="218" y="538" width="322" height="14" rx="3" fill="#e2e8f0"/>
      <rect x="218" y="538" width="31.28" height="14" rx="3" fill="#0278D5"/>
      <text x="255.28" y="551" font-size="9.2" font-weight="700" fill="#0278D5" font-family="Plus Jakarta Sans,DM Sans,sans-serif">102</text>
      <rect x="218" y="556" width="322" height="14" rx="3" fill="#e2e8f0"/>
      <rect x="218" y="556" width="19.933333333333334" height="14" rx="3" fill="#0891b2" opacity="0.85"/>
      <text x="243.93333333333334" y="569" font-size="9.2" font-weight="700" fill="#0891b2" font-family="Plus Jakarta Sans,DM Sans,sans-serif">65</text>
    
  <rect x="218" y="610" width="13" height="13" rx="2" fill="#0278D5"/>
  <text x="237" y="620" font-size="9.2" fill="#64748b" font-family="Plus Jakarta Sans,DM Sans,sans-serif">Workspaces</text>
  <rect x="340" y="610" width="13" height="13" rx="2" fill="#0891b2" opacity="0.85"/>
  <text x="359" y="620" font-size="9.2" fill="#64748b" font-family="Plus Jakarta Sans,DM Sans,sans-serif">Pipelines</text>
</svg>