<svg xmlns="http://www.w3.org/2000/svg" width="720" height="436" viewBox="0 0 720 436">
    <rect width="720" height="436" fill="#ffffff" rx="8"/>
    <text x="360" y="30" text-anchor="middle" font-size="14" font-weight="700" fill="#0d1f35" font-family="Inter,sans-serif">IaCM Maturity Score — 74 / 100 · RUN Tier</text>
    
      <text x="210" y="66" text-anchor="end" font-size="12" fill="#1e293b" font-family="Inter,sans-serif">Workspace Adoption</text>
      <rect x="220" y="48" width="476" height="28" rx="3" fill="#e2e8f0"/>
      <rect x="220" y="48" width="476" height="28" rx="3" fill="#059669" opacity="0.9"/>
      <text x="702" y="66" font-size="11" fill="#64748b" font-family="Inter,sans-serif" font-weight="600">20/20</text>
    
      <text x="210" y="104" text-anchor="end" font-size="12" fill="#1e293b" font-family="Inter,sans-serif">Pipeline Adoption</text>
      <rect x="220" y="86" width="476" height="28" rx="3" fill="#e2e8f0"/>
      <rect x="220" y="86" width="476" height="28" rx="3" fill="#059669" opacity="0.9"/>
      <text x="702" y="104" font-size="11" fill="#64748b" font-family="Inter,sans-serif" font-weight="600">15/15</text>
    
      <text x="210" y="142" text-anchor="end" font-size="12" fill="#1e293b" font-family="Inter,sans-serif">Pipeline Diversity</text>
      <rect x="220" y="124" width="476" height="28" rx="3" fill="#e2e8f0"/>
      <rect x="220" y="124" width="476" height="28" rx="3" fill="#059669" opacity="0.9"/>
      <text x="702" y="142" font-size="11" fill="#64748b" font-family="Inter,sans-serif" font-weight="600">10/10</text>
    
      <text x="210" y="180" text-anchor="end" font-size="12" fill="#1e293b" font-family="Inter,sans-serif">OPA Coverage</text>
      <rect x="220" y="162" width="476" height="28" rx="3" fill="#e2e8f0"/>
      <rect x="220" y="162" width="476" height="28" rx="3" fill="#059669" opacity="0.9"/>
      <text x="702" y="180" font-size="11" fill="#64748b" font-family="Inter,sans-serif" font-weight="600">10/10</text>
    
      <text x="210" y="218" text-anchor="end" font-size="12" fill="#1e293b" font-family="Inter,sans-serif">OPA Policy Sets</text>
      <rect x="220" y="200" width="476" height="28" rx="3" fill="#e2e8f0"/>
      <rect x="220" y="200" width="476" height="28" rx="3" fill="#059669" opacity="0.9"/>
      <text x="702" y="218" font-size="11" fill="#64748b" font-family="Inter,sans-serif" font-weight="600">5/5</text>
    
      <text x="210" y="256" text-anchor="end" font-size="12" fill="#1e293b" font-family="Inter,sans-serif">Multi-Org Adoption</text>
      <rect x="220" y="238" width="476" height="28" rx="3" fill="#e2e8f0"/>
      <rect x="220" y="238" width="476" height="28" rx="3" fill="#059669" opacity="0.9"/>
      <text x="702" y="256" font-size="11" fill="#64748b" font-family="Inter,sans-serif" font-weight="600">5/5</text>
    
      <text x="210" y="294" text-anchor="end" font-size="12" fill="#1e293b" font-family="Inter,sans-serif">Security Scanning</text>
      <rect x="220" y="276" width="476" height="28" rx="3" fill="#e2e8f0"/>
      <rect x="220" y="276" width="253.86666666666667" height="28" rx="3" fill="#d97706" opacity="0.9"/>
      <text x="479.8666666666667" y="294" font-size="11" fill="#64748b" font-family="Inter,sans-serif" font-weight="600">8/15</text>
    
      <text x="210" y="332" text-anchor="end" font-size="12" fill="#1e293b" font-family="Inter,sans-serif">Cost Estimation</text>
      <rect x="220" y="314" width="476" height="28" rx="3" fill="#e2e8f0"/>
      <rect x="220" y="314" width="31.733333333333334" height="28" rx="3" fill="#dc2626" opacity="0.9"/>
      <text x="257.73333333333335" y="332" font-size="11" fill="#64748b" font-family="Inter,sans-serif" font-weight="600">1/15</text>
    
      <text x="210" y="370" text-anchor="end" font-size="12" fill="#1e293b" font-family="Inter,sans-serif">IaCM Templates</text>
      <rect x="220" y="352" width="476" height="28" rx="3" fill="#e2e8f0"/>
      <rect x="220" y="352" width="3" height="28" rx="3" fill="#dc2626" opacity="0.9"/>
      <text x="226" y="370" font-size="11" fill="#64748b" font-family="Inter,sans-serif" font-weight="600">0/5</text>
    
    <text x="220" y="418" font-size="11" fill="#64748b" font-family="Inter,sans-serif">Score thresholds: Crawl 0–39 · Walk 40–69 · Run 70–100</text>
  </svg>