<svg xmlns="http://www.w3.org/2000/svg" width="580" height="560" viewBox="0 0 580 560">
  <rect width="580" height="560" fill="#ffffff" rx="10"/>
  <text x="290" y="32" text-anchor="middle" font-size="15" font-weight="800" fill="#0d1f35" font-family="Inter,sans-serif">IaCM Maturity — RUN Tier</text>
  <polygon points="290,242.5 320.5324114601106,253.61288895184856 336.7783682680799,281.7517115608208 331.13620667976085,313.75 306.24595680796926,334.63539948733063 273.75404319203074,334.63539948733063 248.86379332023918,313.75 243.22163173192013,281.7517115608208 259.4675885398894,253.61288895184856" fill="none" stroke="#e2e8f0" stroke-width="0.8"/><polygon points="290,195 351.0648229202212,217.2257779036971 383.55673653615975,273.5034231216416 372.2724133595217,337.5 322.49191361593853,379.27079897466126 257.50808638406147,379.2707989746613 207.72758664047836,337.5 196.44326346384022,273.5034231216416 228.93517707977875,217.2257779036971" fill="none" stroke="#e2e8f0" stroke-width="0.8"/><polygon points="290,147.5 381.5972343803319,180.83866685554563 430.3351048042397,265.2551346824624 413.4086200392825,361.25 338.7378704239078,423.90619846199195 241.2621295760922,423.90619846199195 166.59137996071752,361.25000000000006 149.66489519576035,265.2551346824625 198.40276561966812,180.83866685554565" fill="none" stroke="#e2e8f0" stroke-width="0.8"/><polygon points="290,100 412.1296458404425,144.4515558073942 477.1134730723195,257.00684624328323 454.5448267190434,385 354.98382723187706,468.5415979493226 225.01617276812294,468.54159794932264 125.4551732809567,385.00000000000006 102.88652692768045,257.0068462432833 167.8703541595575,144.4515558073942" fill="none" stroke="#e2e8f0" stroke-width="1.5"/><text x="294" y="207" font-size="9" fill="#64748b" font-family="Inter,sans-serif">50%</text><text x="294" y="112" font-size="9" fill="#64748b" font-family="Inter,sans-serif">100%</text><line x1="290" y1="290" x2="290" y2="100" stroke="#e2e8f0" stroke-width="1"/><line x1="290" y1="290" x2="412.1296458404425" y2="144.4515558073942" stroke="#e2e8f0" stroke-width="1"/><line x1="290" y1="290" x2="477.1134730723195" y2="257.00684624328323" stroke="#e2e8f0" stroke-width="1"/><line x1="290" y1="290" x2="454.5448267190434" y2="385" stroke="#e2e8f0" stroke-width="1"/><line x1="290" y1="290" x2="354.98382723187706" y2="468.5415979493226" stroke="#e2e8f0" stroke-width="1"/><line x1="290" y1="290" x2="225.01617276812294" y2="468.54159794932264" stroke="#e2e8f0" stroke-width="1"/><line x1="290" y1="290" x2="125.4551732809567" y2="385.00000000000006" stroke="#e2e8f0" stroke-width="1"/><line x1="290" y1="290" x2="102.88652692768045" y2="257.0068462432833" stroke="#e2e8f0" stroke-width="1"/><line x1="290" y1="290" x2="167.8703541595575" y2="144.4515558073942" stroke="#e2e8f0" stroke-width="1"/>
  <polygon points="290,100 412.1296458404425,144.4515558073942 477.1134730723195,257.00684624328323 454.5448267190434,385 354.98382723187706,468.5415979493226 225.01617276812294,468.54159794932264 202.2427590831769,340.6666666666667 277.52576846184536,287.8004564162189 290,290" fill="#0278D5" fill-opacity="0.12" stroke="#0278D5" stroke-width="2.5" stroke-linejoin="round"/>
  <circle cx="202.2427590831769" cy="340.6666666666667" r="4.5" fill="#0278D5" stroke="#ffffff" stroke-width="1.5"/><circle cx="277.52576846184536" cy="287.8004564162189" r="4.5" fill="#0278D5" stroke="#ffffff" stroke-width="1.5"/><text y="51" text-anchor="middle" font-size="11.5" font-weight="700" fill="#1e293b" font-family="Inter,sans-serif"><tspan x="290" dy="0">Workspace</tspan><tspan x="290" dy="14">Adoption</tspan></text><text y="106.21351142392118" text-anchor="start" font-size="11.5" font-weight="700" fill="#1e293b" font-family="Inter,sans-serif"><tspan x="441.6978758860233" dy="0">Pipeline</tspan><tspan x="441.6978758860233" dy="14">Adoption</tspan></text><text y="246.01903007060443" text-anchor="start" font-size="11.5" font-weight="700" fill="#1e293b" font-family="Inter,sans-serif"><tspan x="522.4146297108811" dy="0">Pipeline</tspan><tspan x="522.4146297108811" dy="14">Diversity</tspan></text><text y="404.99999999999994" text-anchor="start" font-size="11.5" font-weight="700" fill="#1e293b" font-family="Inter,sans-serif"><tspan x="494.38199529312755" dy="0">OPA</tspan><tspan x="494.38199529312755" dy="14">Coverage</tspan></text><text y="508.76745850547434" text-anchor="start" font-size="11.5" font-weight="700" fill="#1e293b" font-family="Inter,sans-serif"><tspan x="370.71675382485785" dy="0">OPA Policy</tspan><tspan x="370.71675382485785" dy="14">Sets</tspan></text><text y="508.7674585054744" text-anchor="end" font-size="11.5" font-weight="700" fill="#1e293b" font-family="Inter,sans-serif"><tspan x="209.28324617514218" dy="0">Multi-Org</tspan><tspan x="209.28324617514218" dy="14">Adoption</tspan></text><text y="405.0000000000001" text-anchor="end" font-size="11.5" font-weight="700" fill="#1e293b" font-family="Inter,sans-serif"><tspan x="85.61800470687251" dy="0">Security</tspan><tspan x="85.61800470687251" dy="14">Scanning</tspan></text><text y="246.01903007060452" text-anchor="end" font-size="11.5" font-weight="700" fill="#1e293b" font-family="Inter,sans-serif"><tspan x="57.585370289118885" dy="0">Cost</tspan><tspan x="57.585370289118885" dy="14">Estimation</tspan></text><text y="106.2135114239212" text-anchor="end" font-size="11.5" font-weight="700" fill="#1e293b" font-family="Inter,sans-serif"><tspan x="138.30212411397667" dy="0">IaCM</tspan><tspan x="138.30212411397667" dy="14">Templates</tspan></text>
  <circle cx="290" cy="290" r="52" fill="#0d1f35"/>
  <text x="290" y="280" text-anchor="middle" font-size="30" font-weight="900" fill="#ffffff" font-family="Inter,sans-serif">74</text>
  <text x="290" y="300" text-anchor="middle" font-size="10" fill="rgba(255,255,255,0.55)" font-family="Inter,sans-serif">out of 100</text>
  <text x="290" y="317" text-anchor="middle" font-size="12" font-weight="800" fill="#059669" font-family="Inter,sans-serif">RUN</text>
</svg>