<svg xmlns="http://www.w3.org/2000/svg" width="740" height="200" viewBox="0 0 740 200">
  <rect width="740" height="200" fill="#ffffff" rx="10"/>
  
      <rect x="24" y="20" width="132" height="160" rx="8" fill="#f8fafc"/>
      <rect x="24" y="20" width="132" height="4" rx="2" fill="#0278D5"/>
      <text x="90" y="76" text-anchor="middle" font-size="26" font-weight="900" fill="#0d1f35" font-family="Inter,sans-serif">2,461</text>
      <text x="90" y="98" text-anchor="middle" font-size="12" font-weight="700" fill="#0278D5" font-family="Inter,sans-serif">Workspaces</text>
      <text x="90" y="116" text-anchor="middle" font-size="10" fill="#64748b" font-family="Inter,sans-serif">across 34 orgs</text>
    
      <rect x="164" y="20" width="132" height="160" rx="8" fill="#f8fafc"/>
      <rect x="164" y="20" width="132" height="4" rx="2" fill="#4f46e5"/>
      <text x="230" y="76" text-anchor="middle" font-size="26" font-weight="900" fill="#0d1f35" font-family="Inter,sans-serif">4,911</text>
      <text x="230" y="98" text-anchor="middle" font-size="12" font-weight="700" fill="#4f46e5" font-family="Inter,sans-serif">Pipelines</text>
      <text x="230" y="116" text-anchor="middle" font-size="10" fill="#64748b" font-family="Inter,sans-serif">across 373 projects</text>
    
      <rect x="304" y="20" width="132" height="160" rx="8" fill="#f8fafc"/>
      <rect x="304" y="20" width="132" height="4" rx="2" fill="#059669"/>
      <text x="370" y="76" text-anchor="middle" font-size="26" font-weight="900" fill="#0d1f35" font-family="Inter,sans-serif">100%</text>
      <text x="370" y="98" text-anchor="middle" font-size="12" font-weight="700" fill="#059669" font-family="Inter,sans-serif">OPA Coverage</text>
      <text x="370" y="116" text-anchor="middle" font-size="10" fill="#64748b" font-family="Inter,sans-serif">all pipelines governed</text>
    
      <rect x="444" y="20" width="132" height="160" rx="8" fill="#f8fafc"/>
      <rect x="444" y="20" width="132" height="4" rx="2" fill="#0891b2"/>
      <text x="510" y="76" text-anchor="middle" font-size="26" font-weight="900" fill="#0d1f35" font-family="Inter,sans-serif">11</text>
      <text x="510" y="98" text-anchor="middle" font-size="12" font-weight="700" fill="#0891b2" font-family="Inter,sans-serif">Active Policy Sets</text>
      <text x="510" y="116" text-anchor="middle" font-size="10" fill="#64748b" font-family="Inter,sans-serif">of 20 total</text>
    
      <rect x="584" y="20" width="132" height="160" rx="8" fill="#f8fafc"/>
      <rect x="584" y="20" width="132" height="4" rx="2" fill="#7c3aed"/>
      <text x="650" y="76" text-anchor="middle" font-size="26" font-weight="900" fill="#0d1f35" font-family="Inter,sans-serif">74/100</text>
      <text x="650" y="98" text-anchor="middle" font-size="12" font-weight="700" fill="#7c3aed" font-family="Inter,sans-serif">Maturity Score</text>
      <text x="650" y="116" text-anchor="middle" font-size="10" fill="#64748b" font-family="Inter,sans-serif">RUN tier</text>
    
</svg>