<svg xmlns="http://www.w3.org/2000/svg" width="560" height="280" viewBox="0 0 560 280">
    <rect width="560" height="280" fill="#ffffff" rx="8"/>
    <text x="280" y="28" text-anchor="middle" font-size="14" font-weight="700" fill="#0d1f35" font-family="Inter,sans-serif">Workspace Health — gketest Project</text>
    <path d="M 155 45 A 100 100 0 1 1 79.42504256457418 210.48607339452852 L 111.16652468745303 182.98192256882655 A 58 58 0 1 0 155 87 Z" fill="#059669" opacity="0.85" stroke="#ffffff" stroke-width="2"/><path d="M 79.42504256457418 210.48607339452852 A 100 100 0 0 1 64.03680046454815 103.45849869981139 L 102.24134426943792 120.9059292458906 A 58 58 0 0 0 111.16652468745303 182.98192256882655 Z" fill="#d97706" opacity="0.85" stroke="#ffffff" stroke-width="2"/><path d="M 64.03680046454815 103.45849869981139 A 100 100 0 0 1 154.99999999999997 45 L 155 87 A 58 58 0 0 0 102.24134426943792 120.9059292458906 Z" fill="#dc2626" opacity="0.85" stroke="#ffffff" stroke-width="2"/>
    <text x="155" y="139" text-anchor="middle" font-size="22" font-weight="800" fill="#0d1f35" font-family="Inter,sans-serif">22</text>
    <text x="155" y="157" text-anchor="middle" font-size="11" fill="#64748b" font-family="Inter,sans-serif">Workspaces</text>
    
    <rect x="310" y="80" width="14" height="14" rx="3" fill="#059669" opacity="0.85"/>
    <text x="332" y="91" font-size="13" font-weight="600" fill="#1e293b" font-family="Inter,sans-serif">Active</text>
    <text x="332" y="105" font-size="11" fill="#64748b" font-family="Inter,sans-serif">14 workspaces (64%)</text>
  
    <rect x="310" y="120" width="14" height="14" rx="3" fill="#d97706" opacity="0.85"/>
    <text x="332" y="131" font-size="13" font-weight="600" fill="#1e293b" font-family="Inter,sans-serif">Apply Needed</text>
    <text x="332" y="145" font-size="11" fill="#64748b" font-family="Inter,sans-serif">4 workspaces (18%)</text>
  
    <rect x="310" y="160" width="14" height="14" rx="3" fill="#dc2626" opacity="0.85"/>
    <text x="332" y="171" font-size="13" font-weight="600" fill="#1e293b" font-family="Inter,sans-serif">Failed</text>
    <text x="332" y="185" font-size="11" fill="#64748b" font-family="Inter,sans-serif">4 workspaces (18%)</text>
  
  </svg>